<svg width="194" height="90" viewBox="0 0 194 90" fill="none" xmlns="http://www.w3.org/2000/svg">
<path d="M0.298669 44.982C0.298669 39.3149 0.298669 33.6429 0.298669 27.9659C0.309756 21.45 4.17939 17.5249 10.6639 17.5139C22.0326 17.4954 33.4006 17.4954 44.768 17.5139C51.247 17.5249 55.1499 21.4611 55.1536 27.9475C55.161 39.3383 55.161 50.7291 55.1536 62.12C55.1536 68.5749 51.1971 72.4982 44.7218 72.5C33.3532 72.5 21.9845 72.5 10.6158 72.5C4.25146 72.5 0.317148 68.5454 0.302364 62.1366C0.289428 56.419 0.298669 50.6996 0.298669 44.982ZM27.7446 30.1613V30.1743C23.3095 30.1743 18.8873 30.1244 14.4596 30.1927C11.4419 30.2371 9.37032 32.292 9.34075 35.3134C9.27915 41.7628 9.27915 48.2128 9.34075 54.6635C9.37032 57.7699 11.4456 59.7509 14.5446 59.8692C15.367 59.8987 16.1893 59.884 17.0098 59.884C24.8174 59.884 32.6251 59.9006 40.4309 59.884C44.0104 59.8729 46.0228 57.8789 46.1596 54.3123C46.1891 53.49 46.1836 52.6658 46.1596 51.8416C46.1226 50.0934 45.8085 49.8089 44.0492 49.7738C42.046 49.7312 40.0188 49.8329 38.047 49.5501C35.5412 49.1898 34.0277 46.9796 34.2679 44.496C34.4934 42.1768 36.4855 40.3769 38.9303 40.3381C40.5732 40.3103 42.216 40.3381 43.8607 40.327C45.7512 40.314 46.1281 39.9574 46.1614 38.1094C46.1743 37.3702 46.1762 36.6458 46.1614 35.914C46.069 32.1423 44.1157 30.1983 40.344 30.1853C36.1455 30.1428 31.945 30.1613 27.7446 30.1613ZM38.8841 47.5081C39.531 47.5022 40.1515 47.2509 40.6202 46.8049C41.0888 46.3589 41.3705 45.7516 41.4085 45.1058C41.4203 44.7745 41.3656 44.4442 41.2476 44.1345C41.1295 43.8247 40.9505 43.5418 40.7212 43.3025C40.4918 43.0632 40.2168 42.8723 39.9124 42.7411C39.6079 42.61 39.2803 42.5412 38.9488 42.539C38.6289 42.524 38.3094 42.5739 38.0093 42.6858C37.7092 42.7976 37.4349 42.969 37.2029 43.1897C36.9708 43.4103 36.7858 43.6757 36.659 43.9697C36.5322 44.2638 36.4663 44.5805 36.4652 44.9007C36.4449 45.2326 36.4921 45.5651 36.6041 45.8782C36.7161 46.1913 36.8904 46.4784 37.1165 46.7222C37.3427 46.9659 37.6159 47.1613 37.9198 47.2964C38.2236 47.4315 38.5517 47.5035 38.8841 47.5081Z" fill="#0F273A"/>
<path d="M27.7446 30.1613C31.945 30.1613 36.1454 30.1429 40.3458 30.1613C44.1175 30.1835 46.0745 32.1276 46.1632 35.89C46.1799 36.6292 46.178 37.3536 46.1632 38.0854C46.13 39.9334 45.753 40.29 43.8625 40.303C42.2178 40.3141 40.575 40.2863 38.9321 40.3141C36.4928 40.3529 34.497 42.1528 34.2697 44.472C34.0295 46.9556 35.543 49.1658 38.0488 49.5261C40.0206 49.8089 42.0478 49.7109 44.051 49.7498C45.8103 49.7867 46.1244 50.0695 46.1614 51.8176C46.1799 52.6418 46.1854 53.466 46.1614 54.2884C46.0302 57.8549 44.0177 59.8489 40.4327 59.86C32.6269 59.8858 24.8193 59.86 17.0116 59.86C16.1911 59.86 15.3688 59.8747 14.5464 59.8452C11.4474 59.7269 9.37214 57.7459 9.34257 54.6395C9.27727 48.1901 9.27727 41.7401 9.34257 35.2894C9.37214 32.268 11.4437 30.2131 14.4614 30.1687C18.8965 30.1004 23.3187 30.1503 27.7464 30.1503L27.7446 30.1613Z" fill="#78D331"/>
<path d="M38.8841 47.5081C38.5522 47.5035 38.2246 47.4316 37.9211 47.2968C37.6177 47.1621 37.3447 46.9672 37.1187 46.7241C36.8926 46.4809 36.7181 46.1945 36.6058 45.882C36.4935 45.5696 36.4457 45.2377 36.4652 44.9062C36.4663 44.586 36.5323 44.2693 36.659 43.9753C36.7858 43.6812 36.9708 43.4159 37.2029 43.1952C37.4349 42.9746 37.7092 42.8031 38.0093 42.6913C38.3094 42.5795 38.629 42.5296 38.9488 42.5445C39.2803 42.5468 39.6079 42.6155 39.9124 42.7467C40.2168 42.8778 40.4918 43.0687 40.7212 43.308C40.9505 43.5474 41.1295 43.8303 41.2476 44.14C41.3656 44.4498 41.4203 44.7801 41.4085 45.1113C41.3692 45.7562 41.0868 46.3621 40.6184 46.8069C40.1499 47.2517 39.5301 47.5023 38.8841 47.5081Z" fill="white"/>
<path d="M65.1511 50.7938C65.0196 50.7958 64.889 50.7714 64.7671 50.7219C64.6452 50.6724 64.5346 50.599 64.4416 50.5059C64.3487 50.4128 64.2755 50.302 64.2262 50.18C64.177 50.058 64.1528 49.9274 64.155 49.7959V36.814C64.1504 36.6809 64.1735 36.5482 64.2228 36.4245C64.2721 36.3008 64.3466 36.1886 64.4414 36.0951C64.5354 36.0041 64.6465 35.9327 64.7684 35.8851C64.8902 35.8375 65.0203 35.8147 65.1511 35.8179C65.3339 35.8147 65.5139 35.8634 65.6702 35.9582C65.8265 36.0531 65.9528 36.1902 66.0344 36.3538L72.0347 48.3767H71.4212L77.27 36.3538C77.3513 36.1904 77.4773 36.0533 77.6333 35.9584C77.7893 35.8636 77.9689 35.8149 78.1515 35.8179C78.2822 35.8147 78.4123 35.8375 78.5342 35.8851C78.656 35.9327 78.7672 36.0041 78.8611 36.0951C78.9566 36.1882 79.0316 36.3003 79.0812 36.4241C79.1308 36.5479 79.1541 36.6807 79.1494 36.814V49.7959C79.1519 49.9284 79.1268 50.0599 79.0755 50.1821C79.0243 50.3043 78.9481 50.4145 78.8519 50.5055C78.6638 50.6905 78.4106 50.7942 78.1469 50.7942C77.8831 50.7942 77.6299 50.6905 77.4419 50.5055C77.3482 50.4131 77.2744 50.3025 77.2251 50.1804C77.1759 50.0584 77.1521 49.9275 77.1554 49.7959V39.5767L77.538 39.4806L72.517 49.7202C72.4296 49.8716 72.3038 49.9973 72.1523 50.0846C72.0008 50.1718 71.8289 50.2176 71.654 50.2173C71.4578 50.2251 71.2638 50.1724 71.0986 50.0663C70.9333 49.9602 70.8046 49.8058 70.7301 49.6241L65.7627 39.6709L66.1471 39.5767V49.7959C66.1489 49.9275 66.1242 50.058 66.0747 50.1799C66.0252 50.3017 65.9517 50.4124 65.8587 50.5054C65.7657 50.5984 65.655 50.6719 65.5331 50.7214C65.4113 50.7709 65.2807 50.7956 65.1492 50.7938H65.1511Z" fill="#78D331"/>
<path d="M78.1515 51.1597C77.9718 51.1619 77.7934 51.1282 77.627 51.0604C77.4605 50.9927 77.3093 50.8923 77.1822 50.7652C77.0551 50.6381 76.9547 50.4869 76.887 50.3204C76.8192 50.154 76.7855 49.9756 76.7877 49.7959V41.8497L72.822 49.9253C72.7017 50.1283 72.5306 50.2965 72.3254 50.4132C72.1203 50.5299 71.8882 50.591 71.6522 50.5905C71.3873 50.5977 71.1263 50.5251 70.9032 50.3821C70.6801 50.2391 70.5052 50.0322 70.4011 49.7885L66.5204 42.0049V49.8014C66.5272 49.9849 66.4969 50.1678 66.4313 50.3393C66.3658 50.5108 66.2663 50.6672 66.139 50.7994C66.0116 50.9316 65.8588 51.0367 65.6899 51.1085C65.521 51.1803 65.3393 51.2173 65.1557 51.2173C64.9721 51.2173 64.7905 51.1803 64.6215 51.1085C64.4526 51.0367 64.2998 50.9316 64.1724 50.7994C64.0451 50.6672 63.9456 50.5108 63.8801 50.3393C63.8145 50.1678 63.7842 49.9849 63.791 49.8014V36.814C63.7857 36.6316 63.8184 36.4502 63.8871 36.2813C63.9559 36.1123 64.0591 35.9595 64.1901 35.8327C64.3176 35.7082 64.4685 35.6103 64.6341 35.5447C64.7997 35.479 64.9767 35.4469 65.1548 35.4502C65.4024 35.4469 65.646 35.5128 65.8582 35.6404C66.0704 35.7681 66.2428 35.9524 66.356 36.1727L71.7243 46.9242L76.9429 36.1949C77.041 36.0045 77.1821 35.8395 77.355 35.713C77.5279 35.5865 77.7278 35.502 77.939 35.4661C78.1502 35.4303 78.3669 35.4441 78.5718 35.5064C78.7768 35.5687 78.9644 35.6779 79.1198 35.8253C79.2514 35.9523 79.355 36.1053 79.4241 36.2746C79.4931 36.4438 79.5261 36.6257 79.5208 36.8084V49.7904C79.5237 49.9723 79.4887 50.1528 79.4181 50.3204C79.3475 50.4881 79.2428 50.6392 79.1106 50.7642C78.9852 50.8908 78.8357 50.9909 78.671 51.0589C78.5063 51.1268 78.3297 51.1611 78.1515 51.1597ZM77.5213 40.3473V49.7959C77.5198 49.8791 77.5351 49.9617 77.5663 50.0388C77.5974 50.116 77.6437 50.186 77.7026 50.2448C77.7614 50.3037 77.8315 50.35 77.9086 50.3812C77.9857 50.4123 78.0683 50.4276 78.1515 50.4261C78.2344 50.4271 78.3166 50.4113 78.3932 50.3795C78.4698 50.3478 78.5391 50.3007 78.5969 50.2413C78.6576 50.1845 78.7055 50.1154 78.7374 50.0385C78.7692 49.9617 78.7843 49.879 78.7817 49.7959V36.814C78.7864 36.7301 78.7732 36.6461 78.7429 36.5677C78.7126 36.4894 78.666 36.4183 78.6061 36.3594C78.546 36.3012 78.4747 36.2558 78.3966 36.226C78.3185 36.1961 78.2351 36.1824 78.1515 36.1857C78.035 36.1841 77.9205 36.2165 77.8221 36.2788C77.7237 36.3411 77.6455 36.4308 77.5971 36.5368L72.1419 47.7521L72.6132 48.6982L76.7951 40.1773V39.2884L78.2236 38.9317L77.5213 40.3473ZM65.1511 36.1857C65.0675 36.1824 64.9841 36.1961 64.906 36.226C64.8279 36.2558 64.7566 36.3012 64.6965 36.3594C64.6372 36.4187 64.5911 36.4898 64.5612 36.5682C64.5313 36.6465 64.5182 36.7302 64.5228 36.814V49.7959C64.5181 49.8814 64.531 49.967 64.5605 50.0473C64.59 50.1277 64.6356 50.2012 64.6945 50.2634C64.7534 50.3255 64.8243 50.3751 64.903 50.4089C64.9817 50.4427 65.0664 50.4602 65.152 50.4602C65.2376 50.4602 65.3224 50.4427 65.401 50.4089C65.4797 50.3751 65.5506 50.3255 65.6095 50.2634C65.6684 50.2012 65.714 50.1277 65.7435 50.0473C65.773 49.967 65.7859 49.8814 65.7812 49.7959V40.5265L65.2268 39.427L66.5112 39.1054V40.3528L71.0553 49.4596C71.0988 49.5795 71.1799 49.6822 71.2864 49.7525C71.3929 49.8227 71.5193 49.8567 71.6467 49.8495C71.7571 49.8507 71.8658 49.8222 71.9614 49.7669C72.057 49.7116 72.1359 49.6316 72.19 49.5353L72.578 48.7444H70.828L71.3085 47.7576L65.6999 36.5183C65.6502 36.4159 65.5719 36.33 65.4746 36.271C65.3772 36.212 65.2649 36.1824 65.1511 36.1857Z" fill="#78D331"/>
<path d="M87.164 50.8696C86.2777 50.885 85.4057 50.6444 84.6527 50.1766C83.9098 49.7106 83.3039 49.0556 82.8971 48.2787C82.4584 47.4395 82.2379 46.5034 82.2559 45.5567C82.2412 44.6032 82.4825 43.6632 82.9544 42.8346C83.41 42.0462 84.0652 41.3916 84.8541 40.9368C85.4555 40.5811 86.1215 40.3483 86.8135 40.2519C87.5056 40.1554 88.2098 40.1971 88.8856 40.3746C89.5614 40.5522 90.1953 40.862 90.7505 41.2862C91.3057 41.7103 91.7713 42.2404 92.1203 42.8457C92.5909 43.6709 92.8326 44.6068 92.8207 45.5567H92.0815C92.097 46.5002 91.8766 47.4327 91.4402 48.2695C91.0328 49.046 90.4271 49.7008 89.6847 50.1673C88.93 50.6401 88.0545 50.884 87.164 50.8696ZM87.5466 49.1436C88.1612 49.1544 88.7665 48.9917 89.2929 48.6742C89.8042 48.3594 90.2211 47.9125 90.4996 47.3806C90.7899 46.8105 90.9412 46.1798 90.9412 45.54C90.9412 44.9003 90.7899 44.2696 90.4996 43.6995C90.2203 43.1681 89.8036 42.7214 89.2929 42.4059C88.7643 42.0985 88.1636 41.9366 87.5521 41.9366C86.9406 41.9366 86.34 42.0985 85.8113 42.4059C85.2948 42.7205 84.8712 43.167 84.5843 43.6995C84.2881 44.2678 84.1334 44.8992 84.1334 45.54C84.1334 46.1809 84.2881 46.8123 84.5843 47.3806C84.8705 47.9136 85.2942 48.3602 85.8113 48.6742C86.3347 48.9894 86.9357 49.1519 87.5466 49.1436ZM91.8431 50.8067C91.7137 50.8103 91.5849 50.7875 91.4645 50.7396C91.3442 50.6918 91.2349 50.6199 91.1433 50.5284C91.0516 50.437 90.9796 50.3278 90.9315 50.2076C90.8834 50.0874 90.8604 49.9586 90.8637 49.8292V46.9001L91.2333 44.8674L92.8244 45.5585V49.8347C92.8277 49.964 92.8046 50.0926 92.7567 50.2127C92.7087 50.3328 92.6368 50.4419 92.5454 50.5333C92.4539 50.6247 92.3448 50.6966 92.2248 50.7446C92.1047 50.7926 91.9761 50.8156 91.8468 50.8123L91.8431 50.8067Z" fill="#78D331"/>
<path d="M87.1641 51.2373C86.208 51.2491 85.2685 50.9869 84.4568 50.4815C83.6618 49.9807 83.0124 49.2797 82.5737 48.4487C82.108 47.5568 81.8723 46.5627 81.8881 45.5566C81.8741 44.5383 82.1325 43.5347 82.6366 42.6498C83.1248 41.8062 83.8257 41.1053 84.6693 40.617C85.5445 40.1136 86.5389 39.8545 87.5484 39.8668C88.5391 39.8514 89.5158 40.1024 90.3763 40.5936C91.2368 41.0848 91.9495 41.7981 92.44 42.659C92.9034 43.4717 93.1574 44.3867 93.1792 45.3219V49.8402C93.1765 50.1062 93.0958 50.3656 92.9471 50.5861C92.7984 50.8066 92.5882 50.9787 92.3426 51.0808C92.0969 51.183 91.8267 51.2107 91.5655 51.1607C91.3042 51.1106 91.0634 50.985 90.8729 50.7993C90.6637 50.5888 90.5332 50.3129 90.5033 50.0176C90.3029 50.189 90.0905 50.3459 89.8676 50.487C89.0564 50.9898 88.1184 51.2501 87.1641 51.2373ZM87.5466 40.5949C86.6675 40.583 85.8014 40.8077 85.0389 41.2453C84.3051 41.672 83.6959 42.2837 83.2723 43.0194C82.8345 43.7925 82.6106 44.6683 82.6236 45.5566C82.6093 46.4394 82.8144 47.3118 83.2205 48.0957C83.5997 48.8151 84.1611 49.4224 84.8486 49.8568C85.5477 50.2776 86.3482 50.4999 87.1641 50.4999C87.98 50.4999 88.7805 50.2776 89.4796 49.8568C89.8602 49.6179 90.2033 49.324 90.4978 48.9846V48.0699C89.935 48.7889 89.1302 49.2789 88.2332 49.4489C87.3361 49.6189 86.4078 49.4571 85.621 48.9938C85.0507 48.6485 84.582 48.1581 84.2628 47.5728C83.9275 46.9543 83.7569 46.26 83.7675 45.5566C83.7563 44.8479 83.9268 44.1481 84.2628 43.5239C84.582 42.9385 85.0507 42.4482 85.621 42.1028C86.0522 41.8397 86.5327 41.6675 87.0329 41.5969C87.5331 41.5263 88.0424 41.5587 88.5296 41.6921C89.0168 41.8256 89.4716 42.0572 89.866 42.3729C90.2604 42.6885 90.5861 43.0815 90.823 43.5276C90.9812 43.8178 91.1017 44.1271 91.1815 44.4479L92.4308 44.9893C92.326 43.7752 91.7638 42.6463 90.858 41.8311C89.9522 41.0159 88.7705 40.5753 87.5521 40.5985L87.5466 40.5949ZM91.2314 49.2526V49.8365C91.2274 49.9178 91.2406 49.999 91.2699 50.075C91.2993 50.1509 91.3442 50.2198 91.4019 50.2773C91.4595 50.3347 91.5286 50.3795 91.6046 50.4086C91.6806 50.4377 91.7618 50.4506 91.8431 50.4463C91.9242 50.4503 92.0053 50.4373 92.0811 50.408C92.1569 50.3788 92.2257 50.334 92.2831 50.2765C92.3406 50.2191 92.3854 50.1503 92.4146 50.0745C92.4438 49.9987 92.4569 49.9176 92.4529 49.8365V45.9262H92.4308C92.3943 46.8055 92.1633 47.6657 91.7544 48.445C91.603 48.7284 91.4281 48.9985 91.2314 49.2526ZM87.5466 42.3227C87.0027 42.3143 86.4673 42.459 86.0017 42.7403C85.5375 43.0192 85.1565 43.4174 84.8985 43.8935C84.6247 44.4046 84.4855 44.9769 84.4938 45.5566C84.4839 46.1365 84.6233 46.7093 84.8985 47.2198C85.1564 47.6921 85.5344 48.088 85.9943 48.3674C86.4655 48.6392 86.9999 48.7823 87.5438 48.7823C88.0878 48.7823 88.6222 48.6392 89.0933 48.3674C89.5478 48.0876 89.9191 47.6914 90.1689 47.2198C90.4397 46.7079 90.5764 46.1357 90.5662 45.5566C90.5764 44.9735 90.4397 44.3971 90.1689 43.8805C89.9191 43.4095 89.5477 43.0138 89.0933 42.7348C88.6261 42.4562 88.0906 42.3129 87.5466 42.3209V42.3227ZM91.2314 46.9426V47.8555C91.5552 47.133 91.7167 46.3483 91.7045 45.5566V45.4735L91.5086 45.3885L91.2314 46.9426Z" fill="#78D331"/>
<path d="M96.9101 38.5972C96.6146 38.5989 96.3277 38.4978 96.0984 38.3113C95.8692 38.1248 95.7118 37.8644 95.6533 37.5748C95.5947 37.2851 95.6386 36.984 95.7775 36.7232C95.9163 36.4623 96.1415 36.2577 96.4144 36.1444C96.6874 36.0312 96.9912 36.0162 97.274 36.1022C97.5567 36.1882 97.8009 36.3697 97.9646 36.6157C98.1283 36.8617 98.2015 37.157 98.1717 37.451C98.1418 37.745 98.0107 38.0196 97.8009 38.2276C97.6854 38.3466 97.5468 38.4408 97.3936 38.5044C97.2405 38.5679 97.076 38.5995 96.9101 38.5972ZM96.9101 50.7938C96.7806 50.7974 96.6516 50.7745 96.5312 50.7265C96.4107 50.6785 96.3013 50.6065 96.2096 50.5149C96.118 50.4232 96.046 50.3138 95.998 50.1933C95.9501 50.0729 95.9272 49.9439 95.9307 49.8144V41.2823C95.9254 41.1511 95.9474 41.0203 95.9954 40.8981C96.0435 40.7759 96.1165 40.6651 96.2098 40.5727C96.3463 40.4296 96.5231 40.3314 96.7168 40.2912C96.9104 40.251 97.1117 40.2708 97.2939 40.3478C97.4761 40.4249 97.6305 40.5555 97.7365 40.7225C97.8426 40.8894 97.8953 41.0847 97.8877 41.2823V49.807C97.8918 49.9357 97.8702 50.0639 97.8241 50.1841C97.7781 50.3043 97.7087 50.4142 97.6198 50.5073C97.528 50.602 97.4175 50.6763 97.2953 50.7257C97.1731 50.775 97.0419 50.7982 96.9101 50.7938Z" fill="#78D331"/>
<path d="M96.9102 51.1598C96.7324 51.1638 96.5557 51.1318 96.3906 51.0656C96.2256 50.9994 96.0757 50.9005 95.9499 50.7747C95.8242 50.649 95.7252 50.4991 95.6591 50.334C95.5929 50.169 95.5608 49.9922 95.5649 49.8145V41.2824C95.5582 41.1018 95.5895 40.9219 95.6567 40.7542C95.7238 40.5864 95.8254 40.4346 95.9548 40.3085C96.0817 40.1868 96.2314 40.0914 96.3954 40.028C96.5594 39.9645 96.7344 39.9343 96.9102 39.9389C97.0888 39.9316 97.267 39.9614 97.4335 40.0265C97.6001 40.0915 97.7513 40.1903 97.8777 40.3167C98.0041 40.4431 98.103 40.5944 98.168 40.7609C98.233 40.9274 98.2628 41.1056 98.2555 41.2843V49.8071C98.2605 49.9829 98.2304 50.1579 98.1669 50.322C98.1035 50.486 98.0079 50.6358 97.8859 50.7625C97.7603 50.8934 97.6084 50.9965 97.4403 51.065C97.2722 51.1334 97.0916 51.1657 96.9102 51.1598ZM96.9102 40.6726C96.8287 40.6683 96.7471 40.6807 96.6706 40.7089C96.594 40.7372 96.524 40.7808 96.4648 40.8371C96.4072 40.8953 96.3626 40.9652 96.334 41.0419C96.3053 41.1187 96.2932 41.2006 96.2985 41.2824V49.8071C96.2948 49.8884 96.3081 49.9695 96.3376 50.0454C96.367 50.1213 96.4119 50.1902 96.4695 50.2478C96.527 50.3053 96.596 50.3502 96.6718 50.3797C96.7477 50.4091 96.8289 50.4224 96.9102 50.4187C96.9917 50.424 97.0734 50.4119 97.1498 50.3832C97.2263 50.3546 97.2958 50.31 97.3537 50.2524C97.4106 50.1936 97.4547 50.1237 97.4833 50.0471C97.5119 49.9704 97.5244 49.8887 97.52 49.8071V41.2824C97.5255 41.2005 97.5141 41.1184 97.4864 41.0411C97.4588 40.9639 97.4155 40.8931 97.3592 40.8334C97.2997 40.7768 97.229 40.7332 97.1517 40.7055C97.0744 40.6778 96.9921 40.6666 96.9102 40.6726ZM96.9102 38.9651C96.5302 38.9671 96.1612 38.8372 95.8663 38.5975C95.5713 38.3578 95.3688 38.0232 95.2931 37.6508C95.2175 37.2783 95.2734 36.8912 95.4514 36.5554C95.6295 36.2196 95.9185 35.9561 96.2692 35.8097C96.62 35.6633 97.0106 35.6432 97.3745 35.7528C97.7384 35.8624 98.053 36.095 98.2645 36.4107C98.4761 36.7264 98.5715 37.1058 98.5344 37.484C98.4974 37.8622 98.3302 38.2159 98.0615 38.4846C97.9125 38.639 97.7335 38.7612 97.5355 38.8439C97.3375 38.9265 97.1247 38.9677 96.9102 38.9651ZM96.9102 36.4352C96.6994 36.4327 96.4943 36.5035 96.3299 36.6356C96.1656 36.7676 96.0523 36.9527 96.0093 37.1591C95.9663 37.3655 95.9965 37.5804 96.0945 37.767C96.1925 37.9537 96.3523 38.1005 96.5466 38.1823C96.7409 38.2641 96.9576 38.2758 97.1596 38.2155C97.3616 38.1552 97.5364 38.0265 97.654 37.8516C97.7716 37.6766 97.8248 37.4662 97.8044 37.2564C97.784 37.0466 97.6913 36.8503 97.5422 36.7013C97.4609 36.6158 97.3628 36.548 97.254 36.5022C97.1453 36.4564 97.0282 36.4336 96.9102 36.4352Z" fill="#78D331"/>
<path d="M105.341 50.8696C104.495 50.8782 103.654 50.7387 102.857 50.4576C102.197 50.2426 101.592 49.8863 101.085 49.4135C100.993 49.3232 100.924 49.213 100.882 49.0915C100.841 48.97 100.828 48.8404 100.844 48.7131C100.858 48.5862 100.898 48.4635 100.962 48.3528C101.026 48.2421 101.111 48.1458 101.214 48.07C101.316 47.9773 101.436 47.9065 101.566 47.8619C101.696 47.8174 101.834 47.8002 101.972 47.8113C102.22 47.8422 102.448 47.9617 102.615 48.1476C102.912 48.4439 103.268 48.6755 103.659 48.8277C104.164 49.0435 104.71 49.1511 105.259 49.1436C105.998 49.1436 106.568 49.0235 106.958 48.7741C107.131 48.6835 107.278 48.5494 107.384 48.3847C107.49 48.2201 107.551 48.0308 107.562 47.8353C107.562 47.6356 107.511 47.4391 107.414 47.2645C107.317 47.0899 107.177 46.9429 107.007 46.8374C106.63 46.5565 105.943 46.3267 104.945 46.1481C103.655 45.8906 102.719 45.5069 102.136 44.9968C101.86 44.768 101.639 44.4806 101.488 44.1555C101.337 43.8304 101.261 43.4758 101.264 43.1174C101.243 42.5235 101.449 41.944 101.841 41.4968C102.243 41.0563 102.752 40.7266 103.319 40.5395C103.922 40.3269 104.557 40.2194 105.196 40.2217C105.965 40.209 106.729 40.3478 107.444 40.6301C108.047 40.8632 108.581 41.2445 108.998 41.7389C109.08 41.8239 109.145 41.9246 109.188 42.0351C109.23 42.1456 109.251 42.2635 109.247 42.382C109.24 42.4955 109.207 42.6059 109.151 42.7046C109.095 42.8033 109.016 42.8877 108.922 42.9511C108.816 43.0216 108.697 43.0697 108.572 43.0926C108.446 43.1155 108.318 43.1126 108.194 43.0842C107.929 43.042 107.682 42.9224 107.484 42.7405C107.193 42.4517 106.839 42.2346 106.449 42.1066C106.032 41.9857 105.599 41.9278 105.165 41.9348C104.676 41.9239 104.191 42.0251 103.748 42.2304C103.356 42.4152 103.162 42.7017 103.162 43.0731C103.16 43.2945 103.224 43.5114 103.347 43.6959C103.532 43.9296 103.782 44.1032 104.065 44.1948C104.576 44.385 105.102 44.5297 105.638 44.6272C106.426 44.7622 107.19 45.0073 107.909 45.3553C108.392 45.5857 108.806 45.9395 109.109 46.381C109.357 46.787 109.486 47.2556 109.478 47.7318C109.485 48.2978 109.321 48.8527 109.009 49.3248C108.664 49.8236 108.185 50.2155 107.628 50.4557C106.905 50.7577 106.124 50.899 105.341 50.8696Z" fill="#78D331"/>
<path d="M105.341 51.2373C104.453 51.2452 103.57 51.0982 102.733 50.803C102.022 50.5694 101.371 50.1834 100.824 49.672C100.694 49.5419 100.596 49.384 100.536 49.2101C100.476 49.0363 100.456 48.8511 100.479 48.6686C100.499 48.4921 100.555 48.3216 100.643 48.1677C100.732 48.0139 100.851 47.8799 100.994 47.7742C101.134 47.6515 101.297 47.5588 101.474 47.5019C101.65 47.445 101.837 47.4251 102.022 47.4434C102.354 47.4844 102.661 47.6438 102.887 47.8925C103.15 48.1521 103.465 48.3546 103.811 48.4875C104.27 48.6819 104.764 48.7789 105.263 48.7721C105.932 48.7721 106.438 48.6686 106.767 48.4635C107.137 48.2306 107.192 47.9867 107.198 47.8241C107.203 47.6615 107.168 47.4083 106.799 47.1348C106.571 46.9648 106.059 46.7208 104.892 46.5102C103.517 46.2385 102.543 45.8338 101.905 45.2739C101.59 45.0109 101.337 44.6812 101.165 44.3085C100.993 43.9359 100.905 43.5297 100.909 43.1192C100.888 42.4356 101.126 41.7694 101.576 41.2546C102.021 40.7684 102.582 40.4034 103.206 40.1938C103.849 39.969 104.525 39.8546 105.206 39.8557C106.021 39.8426 106.831 39.9888 107.59 40.2862C108.249 40.5444 108.833 40.9645 109.288 41.5077C109.4 41.6273 109.487 41.768 109.543 41.9216C109.6 42.0752 109.626 42.2386 109.619 42.4022C109.608 42.5684 109.56 42.7302 109.479 42.8754C109.397 43.0207 109.284 43.1457 109.147 43.2411C109.001 43.3419 108.835 43.4118 108.66 43.4464C108.485 43.4811 108.305 43.4797 108.131 43.4426C107.797 43.3869 107.486 43.2347 107.237 43.0046C106.987 42.752 106.681 42.5621 106.344 42.4502C105.962 42.3405 105.566 42.2882 105.169 42.295C104.733 42.2807 104.299 42.366 103.901 42.5445C103.565 42.7089 103.522 42.914 103.522 43.0582C103.519 43.2077 103.562 43.3547 103.644 43.4795C103.789 43.6543 103.982 43.7828 104.199 43.8491C104.687 44.0308 105.191 44.1687 105.705 44.2612C106.527 44.4039 107.325 44.6608 108.076 45.0244C108.616 45.2856 109.078 45.6846 109.415 46.1812C109.698 46.6464 109.843 47.1819 109.835 47.7261C109.841 48.3641 109.656 48.9893 109.303 49.5205C108.921 50.0766 108.39 50.514 107.771 50.7827C107.003 51.108 106.174 51.263 105.341 51.2373ZM101.876 48.1715C101.716 48.1826 101.565 48.2477 101.447 48.3563C101.381 48.4026 101.326 48.4622 101.285 48.5313C101.244 48.6004 101.218 48.6774 101.209 48.7573C101.199 48.8314 101.207 48.9067 101.232 48.977C101.257 49.0474 101.298 49.1108 101.353 49.162C101.822 49.5918 102.377 49.9158 102.983 50.1119C103.74 50.3776 104.538 50.5095 105.341 50.5018C106.066 50.5262 106.789 50.3938 107.458 50.1137C107.953 49.9018 108.379 49.5554 108.687 49.114C108.961 48.7028 109.103 48.2182 109.096 47.7243C109.105 47.3171 108.998 46.9158 108.787 46.5675C108.519 46.1816 108.153 45.8732 107.728 45.6731C107.04 45.3416 106.309 45.1083 105.557 44.9801C104.997 44.8783 104.448 44.7268 103.916 44.5273C103.563 44.4082 103.254 44.1861 103.029 43.8898C102.868 43.6451 102.784 43.3582 102.787 43.0656C102.787 42.7071 102.923 42.2137 103.578 41.8921C104.076 41.6633 104.62 41.552 105.169 41.5669C105.64 41.5587 106.109 41.621 106.562 41.7517C107.006 41.8965 107.41 42.1426 107.743 42.4705C107.888 42.6025 108.069 42.6892 108.262 42.72C108.339 42.7391 108.42 42.7423 108.498 42.7293C108.577 42.7162 108.652 42.6873 108.719 42.6442C108.767 42.6136 108.808 42.5717 108.836 42.5222C108.865 42.4727 108.882 42.4169 108.885 42.3597C108.885 42.2891 108.871 42.2192 108.844 42.1542C108.817 42.0891 108.777 42.0302 108.726 41.9808C108.347 41.5288 107.86 41.1798 107.311 40.9663C106.64 40.7068 105.925 40.5813 105.206 40.5967C104.607 40.5955 104.013 40.6955 103.448 40.8924C102.942 41.062 102.487 41.357 102.125 41.7498C101.794 42.1292 101.621 42.6215 101.643 43.1247C101.637 43.4305 101.701 43.7335 101.829 44.0112C101.957 44.2889 102.146 44.5342 102.382 44.7287C102.911 45.1944 103.799 45.5529 105.019 45.795C106.076 45.9798 106.801 46.2311 107.237 46.5508C107.83 46.9943 107.943 47.5044 107.93 47.8444C107.919 48.1007 107.842 48.3497 107.706 48.5671C107.57 48.7845 107.379 48.9628 107.153 49.0844C106.699 49.3671 106.082 49.5039 105.261 49.5039C104.661 49.5111 104.065 49.3928 103.513 49.1565C103.072 48.9846 102.673 48.7213 102.341 48.384C102.233 48.2652 102.087 48.1886 101.927 48.1678L101.876 48.1715Z" fill="#78D331"/>
<path d="M113.841 50.7938C113.711 50.7979 113.581 50.7744 113.46 50.7247C113.339 50.675 113.231 50.6003 113.141 50.5055C113.05 50.4116 112.978 50.3004 112.931 50.1786C112.883 50.0567 112.86 49.9266 112.864 49.7959V36.8139C112.859 36.6816 112.881 36.5496 112.928 36.426C112.976 36.3024 113.048 36.1898 113.141 36.0951C113.233 36.0037 113.342 35.9319 113.462 35.8842C113.583 35.8366 113.712 35.814 113.841 35.8179C113.989 35.8167 114.135 35.8494 114.268 35.9135C114.401 35.9776 114.517 36.0713 114.608 36.1875L122.966 47.303V36.8139C122.962 36.6806 122.985 36.5478 123.035 36.4241C123.084 36.3003 123.159 36.1882 123.255 36.0951C123.348 36.004 123.459 35.9325 123.581 35.8849C123.702 35.8373 123.832 35.8145 123.962 35.8179C124.094 35.812 124.224 35.8337 124.347 35.8814C124.469 35.9292 124.58 36.0019 124.672 36.0951C124.762 36.191 124.833 36.304 124.879 36.4274C124.925 36.5508 124.947 36.6822 124.942 36.8139V49.7959C124.949 50.0587 124.852 50.3135 124.672 50.5055C124.581 50.6015 124.471 50.6769 124.349 50.7266C124.226 50.7764 124.094 50.7993 123.962 50.7938C123.821 50.7905 123.681 50.7611 123.55 50.7069C123.411 50.6542 123.288 50.5648 123.196 50.4482L114.835 39.3272V49.7959C114.838 49.9268 114.815 50.0569 114.767 50.1787C114.719 50.3006 114.648 50.4116 114.556 50.5055C114.464 50.6007 114.352 50.6755 114.229 50.7252C114.106 50.7748 113.974 50.7982 113.841 50.7938Z" fill="#78D331"/>
<path d="M123.964 51.1597C123.777 51.157 123.592 51.1194 123.419 51.0489C123.218 50.9747 123.041 50.8469 122.907 50.6793L115.205 40.4268V49.7959C115.209 49.974 115.177 50.151 115.112 50.3166C115.046 50.4822 114.949 50.6332 114.824 50.7606C114.697 50.8919 114.544 50.9952 114.375 51.064C114.206 51.1327 114.024 51.1653 113.841 51.1597C113.661 51.1639 113.483 51.1305 113.317 51.0618C113.151 50.9931 113.001 50.8905 112.877 50.7606C112.752 50.6332 112.654 50.4823 112.589 50.3166C112.524 50.151 112.492 49.974 112.496 49.7959V36.814C112.49 36.6333 112.522 36.4534 112.588 36.2853C112.654 36.1172 112.755 35.9645 112.882 35.8364C113.007 35.7096 113.156 35.6098 113.321 35.5433C113.486 35.4769 113.663 35.4452 113.841 35.4502C114.042 35.4491 114.24 35.493 114.421 35.5787C114.603 35.6644 114.763 35.7897 114.889 35.9455L122.597 46.2035V36.814C122.592 36.6317 122.624 36.4503 122.693 36.2813C122.762 36.1123 122.865 35.9596 122.996 35.8327C123.123 35.7083 123.274 35.6104 123.44 35.5447C123.606 35.4791 123.783 35.4469 123.961 35.4502C124.141 35.4436 124.321 35.4749 124.489 35.542C124.657 35.6092 124.808 35.7107 124.935 35.8401C125.058 35.9699 125.154 36.1228 125.217 36.29C125.28 36.4572 125.31 36.6353 125.304 36.814V49.7959C125.312 50.1517 125.179 50.4962 124.935 50.755C124.811 50.8873 124.66 50.9918 124.493 51.0615C124.326 51.1313 124.145 51.1648 123.964 51.1597ZM114.471 38.224L123.491 50.2247C123.543 50.2879 123.61 50.3358 123.687 50.3633C123.775 50.4006 123.869 50.4213 123.964 50.4243C124.046 50.4294 124.128 50.4167 124.204 50.387C124.28 50.3573 124.349 50.3114 124.406 50.2524C124.464 50.1912 124.508 50.1192 124.537 50.0405C124.567 49.9617 124.58 49.878 124.576 49.7941V36.814C124.581 36.7295 124.568 36.6449 124.54 36.5652C124.511 36.4855 124.467 36.4124 124.41 36.3502C124.351 36.2927 124.282 36.2483 124.205 36.22C124.128 36.1916 124.046 36.1799 123.964 36.1857C123.881 36.1826 123.798 36.1964 123.72 36.2262C123.642 36.2561 123.571 36.3014 123.512 36.3594C123.45 36.4175 123.402 36.4882 123.37 36.5666C123.338 36.6451 123.323 36.7294 123.327 36.814V48.4044L114.305 36.4019C114.248 36.3322 114.176 36.2765 114.094 36.239C114.012 36.2015 113.922 36.1833 113.832 36.1857C113.751 36.1819 113.67 36.1951 113.594 36.2243C113.518 36.2536 113.45 36.2984 113.392 36.3557C113.334 36.4161 113.288 36.4881 113.259 36.567C113.23 36.6459 113.217 36.73 113.222 36.814V49.7959C113.219 49.8795 113.233 49.9629 113.262 50.041C113.292 50.1192 113.338 50.1904 113.396 50.2505C113.451 50.3106 113.519 50.3581 113.594 50.39C113.669 50.4218 113.75 50.4373 113.832 50.4353C113.917 50.4385 114.001 50.4237 114.079 50.3918C114.158 50.36 114.228 50.3118 114.287 50.2505C114.345 50.1908 114.391 50.1196 114.421 50.0414C114.452 49.9632 114.465 49.8797 114.462 49.7959L114.471 38.224Z" fill="#78D331"/>
<path d="M133.515 50.8695C132.529 50.8879 131.555 50.6538 130.685 50.1895C129.879 49.7528 129.209 49.1026 128.749 48.3101C128.272 47.472 128.03 46.5208 128.048 45.5566C128.028 44.5913 128.256 43.637 128.71 42.7847C129.136 42.0023 129.771 41.3531 130.543 40.909C131.361 40.4446 132.288 40.209 133.228 40.2271C134.13 40.2022 135.02 40.4315 135.797 40.8887C136.508 41.3248 137.077 41.9577 137.436 42.7108C137.827 43.547 138.021 44.4618 138.003 45.3848C138.007 45.4974 137.986 45.6094 137.943 45.7136C137.9 45.8177 137.836 45.9116 137.754 45.9891C137.67 46.0694 137.57 46.132 137.461 46.1733C137.352 46.2145 137.236 46.2336 137.12 46.2293H129.392V44.6955H137.061L136.272 45.2332C136.269 44.64 136.138 44.0544 135.887 43.5165C135.658 43.0081 135.282 42.5802 134.807 42.288C134.332 41.9958 133.78 41.8528 133.223 41.8774C132.567 41.858 131.919 42.0239 131.353 42.356C130.84 42.6699 130.43 43.1265 130.174 43.6699C129.899 44.2605 129.763 44.9056 129.774 45.5566C129.763 46.2148 129.929 46.8639 130.255 47.436C130.569 47.9823 131.027 48.4327 131.578 48.7388C132.17 49.0666 132.838 49.2323 133.515 49.2193C133.93 49.2159 134.341 49.1409 134.731 48.9975C135.09 48.8802 135.43 48.7088 135.738 48.4894C135.918 48.3538 136.135 48.277 136.36 48.2694C136.574 48.2602 136.784 48.3321 136.946 48.4709C137.043 48.5477 137.124 48.6433 137.183 48.7518C137.243 48.8604 137.28 48.9798 137.292 49.1029C137.296 49.22 137.27 49.3361 137.216 49.4403C137.162 49.5444 137.083 49.6331 136.985 49.6979C136.497 50.0705 135.949 50.3562 135.364 50.5424C134.77 50.7507 134.145 50.8612 133.515 50.8695Z" fill="#78D331"/>
<path d="M133.515 51.2373C132.467 51.2551 131.432 51.0051 130.508 50.511C129.644 50.0422 128.925 49.3448 128.431 48.4949C127.923 47.6003 127.664 46.5854 127.682 45.5566C127.662 44.527 127.905 43.5091 128.388 42.5999C128.849 41.763 129.53 41.0682 130.358 40.5912C131.232 40.0923 132.223 39.8371 133.228 39.852C134.201 39.8266 135.162 40.075 136 40.569C136.77 41.0424 137.386 41.7277 137.776 42.5426C138.191 43.4291 138.397 44.3989 138.378 45.3774C138.38 45.5401 138.348 45.7015 138.285 45.8513C138.221 46.0011 138.127 46.1361 138.009 46.2478C137.891 46.3606 137.751 46.4489 137.599 46.5076C137.446 46.5663 137.283 46.5942 137.12 46.5897H130.283C130.517 47.3678 131.048 48.0227 131.761 48.4136C132.298 48.7085 132.904 48.8576 133.516 48.846C133.89 48.8425 134.26 48.775 134.61 48.6464C134.935 48.541 135.241 48.3871 135.52 48.19C135.761 48.0085 136.052 47.9059 136.353 47.8962C136.657 47.8841 136.954 47.9871 137.185 48.1844C137.321 48.2928 137.433 48.4279 137.515 48.5814C137.597 48.735 137.646 48.9036 137.66 49.077C137.669 49.2543 137.632 49.4308 137.553 49.5898C137.474 49.7487 137.355 49.8846 137.209 49.9844C136.69 50.382 136.106 50.6865 135.483 50.8843C134.85 51.1082 134.185 51.2274 133.515 51.2373ZM133.226 40.5949C132.352 40.5788 131.489 40.797 130.728 41.2269C130.014 41.6401 129.428 42.2417 129.033 42.9658C128.612 43.7618 128.4 44.6523 128.418 45.5529C128.399 46.4528 128.623 47.3412 129.065 48.1253C129.492 48.8597 130.114 49.462 130.861 49.8661C131.53 50.2191 132.264 50.4305 133.018 50.487C133.773 50.5436 134.53 50.4442 135.244 50.195C135.789 50.0235 136.3 49.7584 136.754 49.4115C136.911 49.2932 136.926 49.2008 136.922 49.1251C136.912 49.0518 136.887 48.9813 136.849 48.9178C136.811 48.8544 136.76 48.7992 136.701 48.7555C136.608 48.6786 136.49 48.6396 136.37 48.6464C136.219 48.6516 136.073 48.7039 135.954 48.7961C135.614 49.0345 135.24 49.2214 134.845 49.3505C134.416 49.5071 133.963 49.5889 133.505 49.5926C132.768 49.6048 132.041 49.4239 131.395 49.0678C130.931 48.8081 130.525 48.4552 130.203 48.0313C129.882 47.6074 129.652 47.1216 129.527 46.6044H129.024V44.3277H129.553C129.623 44.0457 129.721 43.7715 129.846 43.5091C130.135 42.9034 130.592 42.3943 131.164 42.0437C131.788 41.6758 132.502 41.4908 133.226 41.5096C133.853 41.4856 134.472 41.6485 135.005 41.9776C135.539 42.3067 135.962 42.7871 136.222 43.3576C136.37 43.6661 136.479 43.992 136.545 44.3277H137.552C137.477 43.8228 137.326 43.332 137.105 42.8716C136.774 42.1844 136.253 41.607 135.603 41.2084C134.883 40.786 134.06 40.5734 133.226 40.5949ZM135.998 45.8616H137.107C137.175 45.8643 137.242 45.8536 137.306 45.8302C137.369 45.8067 137.427 45.7709 137.477 45.7248C137.523 45.6814 137.559 45.6286 137.582 45.5699C137.606 45.5112 137.617 45.448 137.613 45.3848C137.613 45.1741 137.613 44.969 137.586 44.7676L135.998 45.8616ZM130.146 45.8616H135.921L135.908 45.2406C135.908 45.1797 135.908 45.1205 135.908 45.0558H130.174C130.156 45.2204 130.148 45.3857 130.148 45.5511C130.142 45.662 130.146 45.7618 130.153 45.8616H130.146ZM130.307 44.3277H135.786C135.731 44.1029 135.653 43.8843 135.553 43.6754C135.353 43.2295 135.024 42.8543 134.607 42.599C134.191 42.3438 133.707 42.2204 133.219 42.2451C132.632 42.2272 132.051 42.3738 131.543 42.6683C131.089 42.9446 130.727 43.3482 130.501 43.8288C130.426 43.9904 130.364 44.1571 130.314 44.3277H130.307Z" fill="#78D331"/>
<path d="M144.482 50.8695C143.6 50.8911 142.73 50.6621 141.974 50.2091C141.217 49.756 140.604 49.0975 140.206 48.3101C139.771 47.4587 139.553 46.5127 139.572 45.5566C139.552 44.5887 139.787 43.6326 140.254 42.7847C140.693 41.9987 141.339 41.3485 142.122 40.9053C142.964 40.4575 143.902 40.2233 144.856 40.2233C145.809 40.2233 146.747 40.4575 147.589 40.9053C148.372 41.3491 149.018 41.9991 149.457 42.7847C149.922 43.6333 150.154 44.5894 150.132 45.5566H149.001C149.019 46.5064 148.82 47.4479 148.417 48.3082C148.061 49.0669 147.507 49.716 146.814 50.1876C146.124 50.645 145.311 50.8827 144.482 50.8695ZM144.826 55.1457C143.947 55.1517 143.077 54.9683 142.276 54.6079C141.488 54.2545 140.798 53.7156 140.263 53.0372C140.185 52.9455 140.128 52.8377 140.096 52.7214C140.064 52.6052 140.058 52.4833 140.079 52.3645C140.1 52.252 140.143 52.1449 140.207 52.0496C140.27 51.9543 140.352 51.8729 140.448 51.8101C140.551 51.7364 140.668 51.6846 140.792 51.6579C140.915 51.6312 141.043 51.6302 141.167 51.6549C141.41 51.7021 141.626 51.8395 141.771 52.0393C142.119 52.4764 142.566 52.8247 143.074 53.0556C143.634 53.3076 144.243 53.4338 144.857 53.4252C145.452 53.4299 146.037 53.2775 146.554 52.9836C147.083 52.6807 147.513 52.2315 147.792 51.69C148.117 51.0358 148.275 50.3115 148.252 49.5815V46.8502L148.884 45.163L150.132 45.5566V49.6979C150.144 50.6571 149.913 51.6038 149.461 52.4495C149.029 53.2642 148.386 53.9474 147.598 54.4268C146.758 54.9187 145.799 55.1676 144.826 55.1457ZM144.865 49.1435C145.484 49.1555 146.095 48.9963 146.63 48.6834C147.138 48.3798 147.552 47.9417 147.827 47.4175C148.125 46.8431 148.273 46.2033 148.26 45.5566C148.272 44.9071 148.124 44.2646 147.827 43.6865C147.554 43.1584 147.14 42.7169 146.63 42.4114C146.09 42.1097 145.483 41.9513 144.865 41.9513C144.247 41.9513 143.639 42.1097 143.1 42.4114C142.589 42.7186 142.172 43.1595 141.893 43.6865C141.59 44.2625 141.436 44.9056 141.446 45.5566C141.433 46.2038 141.585 46.8436 141.888 47.4157C142.168 47.9389 142.585 48.3763 143.094 48.6815C143.631 48.9961 144.243 49.156 144.865 49.1435Z" fill="#78D331"/>
<path d="M144.826 55.5135C143.896 55.5185 142.975 55.3245 142.126 54.9443C141.282 54.5663 140.541 53.9901 139.968 53.2645C139.857 53.131 139.777 52.9751 139.733 52.8075C139.689 52.64 139.682 52.4648 139.713 52.2943C139.743 52.1343 139.805 51.982 139.895 51.8467C139.986 51.7114 140.103 51.5958 140.239 51.5071C140.383 51.4051 140.546 51.3337 140.718 51.2975C140.891 51.2613 141.068 51.2609 141.241 51.2964C141.572 51.36 141.867 51.5469 142.065 51.8194C142.377 52.2074 142.776 52.5169 143.229 52.723C143.742 52.9494 144.297 53.0616 144.857 53.052C145.388 53.0568 145.911 52.921 146.373 52.6584C146.843 52.388 147.223 51.9858 147.467 51.5015C147.738 50.9581 147.88 50.359 147.881 49.7515C147.623 50.0313 147.334 50.2794 147.018 50.4907C146.264 50.9878 145.378 51.2455 144.475 51.2299C143.526 51.2513 142.591 51.0039 141.777 50.5164C140.962 50.0288 140.303 49.321 139.873 48.4746C139.416 47.571 139.187 46.5692 139.206 45.5566C139.186 44.5243 139.437 43.5048 139.934 42.5999C140.408 41.7582 141.102 41.0613 141.941 40.5838C142.838 40.1045 143.839 39.8537 144.856 39.8537C145.872 39.8537 146.873 40.1045 147.77 40.5838C148.609 41.0613 149.303 41.7582 149.777 42.5999C150.232 43.4243 150.481 44.347 150.501 45.2887V49.6979C150.513 50.7183 150.267 51.725 149.786 52.6251C149.319 53.4929 148.628 54.2197 147.785 54.7299C146.89 55.2594 145.866 55.5307 144.826 55.5135ZM140.99 52.0023C140.871 52.0048 140.755 52.0435 140.659 52.1132C140.603 52.1488 140.555 52.1956 140.518 52.2506C140.48 52.3056 140.455 52.3676 140.443 52.4329C140.432 52.499 140.437 52.5666 140.457 52.6306C140.476 52.6946 140.51 52.7534 140.555 52.8025C141.054 53.4319 141.696 53.9326 142.427 54.2624C143.183 54.6003 144.002 54.7723 144.83 54.7669C145.738 54.7868 146.634 54.5532 147.417 54.0924C148.149 53.6495 148.75 53.0184 149.156 52.2647C149.578 51.4724 149.793 50.5864 149.782 49.6887V45.9262H149.378C149.349 46.8075 149.14 47.6735 148.764 48.4709C148.723 48.554 148.681 48.6335 148.638 48.713V49.5667C148.656 50.3552 148.479 51.1358 148.123 51.8397C147.812 52.4465 147.333 52.9503 146.742 53.2904C146.17 53.6159 145.523 53.7848 144.865 53.7801C144.197 53.7926 143.535 53.6589 142.924 53.3883C142.364 53.1333 141.871 52.7496 141.487 52.2684C141.395 52.1366 141.255 52.0458 141.097 52.0153C141.062 52.0082 141.026 52.0045 140.99 52.0042V52.0023ZM144.87 40.593C143.977 40.5752 143.094 40.7932 142.311 41.225C141.586 41.6381 140.988 42.2405 140.579 42.9676C140.145 43.7596 139.927 44.6518 139.946 45.5548C139.927 46.4527 140.13 47.3413 140.537 48.1419C140.904 48.87 141.47 49.4788 142.169 49.8973C142.869 50.3158 143.673 50.5267 144.488 50.5055C145.245 50.5177 145.989 50.3006 146.62 49.8827C147.142 49.5294 147.578 49.0633 147.895 48.5189V48.0107C147.609 48.4104 147.244 48.7469 146.822 48.9994C146.226 49.335 145.553 49.5113 144.869 49.5113C144.184 49.5113 143.512 49.335 142.915 48.9994C142.351 48.66 141.888 48.1749 141.575 47.5949C141.239 46.969 141.067 46.2674 141.076 45.5566C141.069 44.8485 141.239 44.1498 141.57 43.5239C141.88 42.9387 142.344 42.4493 142.912 42.1083C143.507 41.7715 144.18 41.5945 144.865 41.5945C145.549 41.5945 146.222 41.7715 146.818 42.1083C147.385 42.4483 147.847 42.9389 148.152 43.5257C148.381 43.9638 148.528 44.4396 148.587 44.9302L148.67 44.7066L149.751 45.0558C149.703 44.3237 149.493 43.6112 149.137 42.9695C148.729 42.2423 148.13 41.6399 147.406 41.2269C146.629 40.7966 145.753 40.5786 144.865 40.5949L144.87 40.593ZM144.87 42.319C144.317 42.3081 143.772 42.4501 143.294 42.7293C142.839 43.0022 142.468 43.3946 142.22 43.8639C141.946 44.3852 141.806 44.9674 141.816 45.5566C141.803 46.1422 141.939 46.7214 142.211 47.2401C142.462 47.7059 142.833 48.0953 143.287 48.3674C143.768 48.6327 144.308 48.7718 144.857 48.7718C145.407 48.7718 145.947 48.6327 146.428 48.3674C146.879 48.0966 147.247 47.7074 147.493 47.242C147.759 46.7209 147.893 46.1419 147.881 45.5566C147.892 44.9671 147.758 44.3838 147.491 43.8584C147.25 43.3916 146.885 43.0008 146.436 42.7293C145.959 42.4514 145.416 42.3101 144.865 42.3209L144.87 42.319Z" fill="#78D331"/>
<path d="M157.808 50.8696C156.85 50.8886 155.904 50.654 155.066 50.1895C154.283 49.7448 153.636 49.095 153.195 48.3102C152.749 47.4584 152.515 46.511 152.515 45.5493C152.515 44.5876 152.749 43.6402 153.195 42.7884C153.635 42.0028 154.282 41.3528 155.066 40.9091C155.907 40.4612 156.845 40.227 157.798 40.227C158.751 40.227 159.689 40.4612 160.53 40.9091C161.313 41.3518 161.96 42.0005 162.4 42.7847C162.845 43.6366 163.079 44.5833 163.08 45.5445C163.082 46.5057 162.852 47.4531 162.409 48.3065C161.974 49.092 161.331 49.7422 160.55 50.1858C159.712 50.6516 158.766 50.8875 157.808 50.8696ZM157.808 49.1436C158.427 49.1556 159.037 48.9964 159.571 48.6834C160.08 48.38 160.495 47.942 160.77 47.4176C161.067 46.843 161.215 46.2032 161.201 45.5567C161.214 44.9073 161.066 44.2648 160.77 43.6865C160.497 43.1584 160.081 42.7169 159.571 42.4115C159.032 42.1106 158.425 41.953 157.807 41.9537C157.19 41.9543 156.583 42.1132 156.045 42.4151C155.534 42.7218 155.116 43.1629 154.838 43.6902C154.535 44.2651 154.383 44.9071 154.395 45.5567C154.381 46.2039 154.533 46.844 154.836 47.4157C155.116 47.9393 155.534 48.3769 156.043 48.6816C156.578 48.9951 157.188 49.155 157.808 49.1436ZM157.884 38.6564C157.754 38.6597 157.626 38.6366 157.505 38.5885C157.385 38.5405 157.276 38.4684 157.184 38.3768C157.093 38.2851 157.021 38.1758 156.973 38.0555C156.925 37.9352 156.903 37.8064 156.906 37.677C156.896 37.4384 156.979 37.2053 157.137 37.0265L159.015 35.1471C159.104 35.0545 159.212 34.9811 159.33 34.9315C159.449 34.882 159.577 34.8572 159.706 34.8588C159.838 34.8533 159.969 34.8762 160.092 34.926C160.214 34.9757 160.325 35.0511 160.415 35.1471C160.594 35.3393 160.691 35.5942 160.683 35.8567C160.685 35.9823 160.666 36.1072 160.626 36.2263C160.585 36.3456 160.512 36.4515 160.415 36.5331L158.556 38.3866C158.47 38.474 158.366 38.5429 158.252 38.5893C158.138 38.6356 158.016 38.6585 157.893 38.6564H157.884Z" fill="#78D331"/>
<path d="M157.808 51.2374C156.785 51.2532 155.776 50.9982 154.883 50.4982C154.043 50.0207 153.349 49.3238 152.876 48.4821C152.397 47.5748 152.148 46.5647 152.148 45.5392C152.148 44.5136 152.397 43.5035 152.876 42.5963C153.351 41.7557 154.044 41.0592 154.883 40.5802C155.78 40.1009 156.781 39.8501 157.798 39.8501C158.815 39.8501 159.816 40.1009 160.713 40.5802C161.553 41.0587 162.247 41.757 162.72 42.6C163.196 43.5071 163.446 44.516 163.448 45.5406C163.45 46.5652 163.204 47.575 162.731 48.4839C162.262 49.3273 161.57 50.0255 160.731 50.5019C159.839 51.0006 158.83 51.2543 157.808 51.2374ZM157.808 40.595C156.914 40.5766 156.031 40.7947 155.249 41.227C154.523 41.64 153.924 42.2423 153.515 42.9696C153.1 43.7661 152.883 44.6511 152.883 45.5494C152.883 46.4476 153.1 47.3326 153.515 48.1291C153.924 48.8562 154.523 49.4581 155.249 49.8699C156.038 50.2851 156.916 50.502 157.808 50.502C158.7 50.502 159.578 50.2851 160.367 49.8699C161.09 49.4594 161.686 48.8578 162.09 48.131C162.5 47.3324 162.714 46.4471 162.712 45.5491C162.711 44.6512 162.494 43.7666 162.08 42.9696C161.671 42.2423 161.072 41.64 160.347 41.227C159.571 40.7965 158.695 40.5785 157.808 40.595ZM157.808 49.5114C157.124 49.5223 156.45 49.3453 155.86 48.9995C155.295 48.6603 154.832 48.1751 154.519 47.595C154.199 46.9624 154.033 46.2636 154.033 45.5549C154.033 44.8462 154.199 44.1474 154.519 43.5147C154.828 42.9292 155.292 42.4397 155.86 42.0992C156.456 41.7624 157.129 41.5853 157.813 41.5853C158.498 41.5853 159.171 41.7624 159.767 42.0992C160.334 42.4391 160.796 42.9298 161.101 43.5166C161.423 44.1453 161.585 44.8433 161.574 45.5494C161.587 46.2559 161.424 46.9545 161.099 47.5821C160.792 48.1643 160.331 48.6513 159.767 48.9903C159.174 49.3408 158.496 49.5211 157.808 49.5114ZM157.808 42.321C157.254 42.3089 156.708 42.4502 156.23 42.7294C155.775 43.0027 155.403 43.395 155.154 43.864C154.883 44.387 154.747 44.9696 154.759 45.5586C154.746 46.1441 154.883 46.7233 155.154 47.2421C155.405 47.7078 155.776 48.0973 156.23 48.3693C156.711 48.6346 157.251 48.7738 157.801 48.7738C158.35 48.7738 158.89 48.6346 159.371 48.3693C159.822 48.0988 160.19 47.7103 160.436 47.2458C160.702 46.724 160.835 46.1443 160.822 45.5586C160.834 44.9692 160.701 44.3859 160.434 43.8603C160.192 43.3919 159.824 43.0003 159.371 42.7294C158.897 42.4531 158.357 42.3119 157.808 42.321ZM157.884 39.0223C157.706 39.0264 157.529 38.9943 157.364 38.9282C157.199 38.862 157.049 38.763 156.923 38.6373C156.798 38.5116 156.699 38.3616 156.633 38.1966C156.566 38.0316 156.534 37.8548 156.538 37.677C156.527 37.3457 156.645 37.023 156.867 36.7771L158.756 34.8866C158.879 34.7592 159.026 34.6584 159.19 34.5904C159.353 34.5223 159.529 34.4886 159.706 34.4911C159.888 34.4859 160.069 34.5192 160.238 34.589C160.406 34.6587 160.558 34.7633 160.683 34.8958C160.927 35.1556 161.06 35.5005 161.053 35.8568C161.053 36.0199 161.027 36.1821 160.977 36.3373C160.915 36.518 160.805 36.6787 160.659 36.8029L158.811 38.6509C158.691 38.7713 158.548 38.8662 158.39 38.9301C158.232 38.9939 158.063 39.0253 157.893 39.0223H157.884ZM159.706 35.2266C159.625 35.2258 159.545 35.2418 159.471 35.2736C159.397 35.3055 159.33 35.3524 159.275 35.4114L157.396 37.2908C157.308 37.4015 157.264 37.5413 157.274 37.6826C157.27 37.7639 157.283 37.8451 157.312 37.9211C157.341 37.9971 157.386 38.0662 157.443 38.1238C157.5 38.1815 157.569 38.2264 157.645 38.2558C157.721 38.2851 157.802 38.2982 157.884 38.2942C157.96 38.2972 158.036 38.2844 158.106 38.2567C158.177 38.2291 158.242 38.1871 158.296 38.1335L160.155 36.2726C160.21 36.2313 160.252 36.1757 160.277 36.1118C160.304 36.0314 160.317 35.9471 160.316 35.8623C160.319 35.7783 160.306 35.6945 160.277 35.6155C160.249 35.5366 160.204 35.4641 160.147 35.4022C160.091 35.342 160.023 35.295 159.946 35.2647C159.87 35.2343 159.788 35.2213 159.706 35.2266Z" fill="#78D331"/>
<path d="M170.749 50.8696C169.793 50.8891 168.849 50.6497 168.018 50.1766C167.232 49.7247 166.583 49.069 166.139 48.2788C165.675 47.4474 165.441 46.5082 165.459 45.5567C165.441 44.594 165.672 43.6431 166.129 42.7958C166.56 42.0082 167.199 41.3546 167.977 40.9072C168.795 40.4428 169.722 40.2072 170.662 40.2253C171.376 40.2168 172.082 40.3644 172.732 40.6578C173.381 40.9623 173.957 41.4036 174.419 41.9513C174.501 42.0332 174.56 42.1341 174.592 42.2448C174.625 42.3555 174.629 42.4725 174.604 42.5852C174.538 42.8216 174.388 43.026 174.183 43.1599C174.098 43.2224 174.002 43.2659 173.899 43.2872C173.796 43.3086 173.69 43.3074 173.588 43.2837C173.36 43.2344 173.153 43.1179 172.993 42.9492C172.696 42.6262 172.335 42.37 171.932 42.1979C171.528 42.0259 171.093 41.9418 170.655 41.9513C170.049 41.9395 169.452 42.0955 168.929 42.4022C168.429 42.7036 168.024 43.1389 167.759 43.6588C167.466 44.2475 167.32 44.8991 167.336 45.5567C167.323 46.1992 167.472 46.8346 167.768 47.4047C168.045 47.93 168.459 48.3707 168.966 48.6798C169.505 49.0004 170.123 49.1631 170.749 49.1491C171.149 49.1561 171.547 49.1012 171.93 48.9865C172.267 48.877 172.581 48.7046 172.854 48.4783C173.031 48.3236 173.252 48.2269 173.486 48.2011C173.59 48.1904 173.694 48.2013 173.794 48.2331C173.893 48.2649 173.985 48.317 174.063 48.3859C174.161 48.4574 174.244 48.5476 174.308 48.6513C174.371 48.7549 174.413 48.8701 174.432 48.9902C174.444 49.102 174.429 49.215 174.389 49.32C174.349 49.425 174.285 49.519 174.201 49.5945C173.281 50.4433 172.13 50.8684 170.749 50.8696Z" fill="#78D331"/>
<path d="M170.749 51.2373C169.728 51.2529 168.72 50.9938 167.833 50.487C166.992 50.0018 166.296 49.2998 165.819 48.4543C165.33 47.5679 165.082 46.5688 165.1 45.5567C165.083 44.5314 165.33 43.5191 165.817 42.6166C166.278 41.7709 166.962 41.0678 167.794 40.5838C168.667 40.0848 169.659 39.8295 170.664 39.8446C171.428 39.8376 172.185 39.9965 172.882 40.3103C173.578 40.6386 174.196 41.1117 174.695 41.6981C174.815 41.823 174.903 41.9756 174.951 42.1427C174.998 42.3097 175.003 42.4858 174.966 42.6554C174.881 42.9789 174.68 43.2598 174.401 43.4445C174.275 43.5364 174.131 43.6005 173.979 43.6324C173.827 43.6642 173.669 43.6632 173.517 43.6293C173.22 43.5652 172.948 43.4133 172.738 43.1931C172.475 42.9045 172.154 42.6757 171.795 42.5223C171.436 42.3689 171.049 42.2946 170.659 42.3043C170.12 42.294 169.588 42.4314 169.121 42.7016C168.68 42.9669 168.322 43.3511 168.088 43.8104C167.823 44.3468 167.692 44.9399 167.707 45.5382C167.697 46.1162 167.831 46.6876 168.096 47.2014C168.343 47.6687 168.711 48.0612 169.162 48.3379C169.643 48.6212 170.194 48.7645 170.753 48.7518C171.114 48.7585 171.474 48.7099 171.821 48.6077C172.116 48.5118 172.391 48.3613 172.63 48.1642C172.865 47.9624 173.156 47.8373 173.464 47.8056C173.615 47.791 173.768 47.8071 173.913 47.8528C174.058 47.8985 174.193 47.973 174.308 48.0718C174.577 48.2764 174.754 48.5795 174.8 48.9144C174.818 49.0813 174.798 49.2501 174.74 49.4076C174.682 49.5651 174.588 49.7069 174.465 49.8218C173.466 50.7716 172.22 51.2373 170.749 51.2373ZM170.655 40.5949C169.78 40.5783 168.917 40.7965 168.155 41.2269C167.438 41.6428 166.848 42.2475 166.451 42.9751C166.023 43.7694 165.808 44.6605 165.826 45.5622C165.812 46.4469 166.03 47.3198 166.458 48.0939C166.872 48.8264 167.475 49.4351 168.203 49.8569C168.978 50.2968 169.858 50.5207 170.749 50.5055C172.043 50.5055 173.094 50.1175 173.952 49.3191C173.994 49.2835 174.026 49.2379 174.046 49.1867C174.066 49.1354 174.073 49.0799 174.066 49.0253C174.055 48.9511 174.028 48.8801 173.988 48.8166C173.948 48.7531 173.895 48.6983 173.833 48.6557C173.792 48.6177 173.743 48.5891 173.69 48.5719C173.637 48.5546 173.58 48.5492 173.525 48.5559C173.364 48.5765 173.213 48.6447 173.091 48.7518C172.781 49.0082 172.424 49.2027 172.041 49.3247C171.622 49.4529 171.186 49.5152 170.747 49.5095C170.054 49.523 169.37 49.3419 168.774 48.9865C168.211 48.6427 167.752 48.1537 167.443 47.571C167.12 46.9496 166.956 46.2572 166.968 45.5567C166.952 44.8393 167.111 44.1289 167.432 43.487C167.729 42.9089 168.181 42.4246 168.737 42.0881C169.317 41.7466 169.98 41.572 170.653 41.5836C171.141 41.5736 171.626 41.6674 172.075 41.8585C172.524 42.0496 172.928 42.3338 173.259 42.6923C173.367 42.8068 173.506 42.8866 173.66 42.9215C173.713 42.9338 173.767 42.9345 173.82 42.9233C173.873 42.9121 173.923 42.8894 173.967 42.8568C174.1 42.774 174.199 42.6461 174.246 42.4965C174.26 42.4299 174.262 42.3357 174.133 42.1897C173.704 41.6818 173.171 41.2721 172.569 40.9885C171.967 40.7203 171.314 40.586 170.655 40.5949Z" fill="#78D331"/>
<path d="M178.688 38.5972C178.392 38.599 178.105 38.4979 177.875 38.3112C177.645 38.1245 177.487 37.8638 177.429 37.5736C177.37 37.2835 177.414 36.9819 177.553 36.7206C177.692 36.4592 177.917 36.2543 178.191 36.1408C178.464 36.0274 178.769 36.0125 179.052 36.0986C179.335 36.1847 179.58 36.3666 179.743 36.6131C179.907 36.8596 179.981 37.1554 179.951 37.4499C179.921 37.7444 179.789 38.0193 179.579 38.2276C179.464 38.347 179.325 38.4414 179.172 38.5049C179.019 38.5685 178.854 38.5999 178.688 38.5972ZM178.688 50.7938C178.559 50.7973 178.43 50.7744 178.309 50.7265C178.189 50.6785 178.08 50.6064 177.988 50.5147C177.897 50.423 177.825 50.3136 177.777 50.1932C177.729 50.0727 177.707 49.9438 177.71 49.8143V41.2823C177.705 41.1512 177.727 41.0205 177.774 40.8983C177.822 40.7761 177.895 40.6652 177.988 40.5727C178.124 40.4295 178.301 40.3313 178.495 40.2912C178.688 40.251 178.89 40.2708 179.072 40.3478C179.254 40.4248 179.408 40.5555 179.514 40.7224C179.62 40.8894 179.673 41.0846 179.666 41.2823V49.8069C179.67 49.9357 179.649 50.064 179.603 50.1843C179.557 50.3046 179.487 50.4144 179.398 50.5073C179.306 50.6019 179.195 50.6763 179.073 50.7256C178.951 50.775 178.82 50.7982 178.688 50.7938Z" fill="#78D331"/>
<path d="M178.688 51.1597C178.51 51.1637 178.334 51.1317 178.168 51.0655C178.003 50.9993 177.854 50.9004 177.728 50.7746C177.602 50.6489 177.503 50.499 177.437 50.3339C177.371 50.1689 177.339 49.9921 177.343 49.8144V41.2823C177.336 41.1018 177.367 40.9218 177.435 40.7541C177.502 40.5863 177.603 40.4345 177.733 40.3084C177.86 40.1867 178.009 40.0913 178.173 40.0279C178.337 39.9644 178.512 39.9342 178.688 39.9388C178.867 39.9315 179.045 39.9614 179.211 40.0264C179.378 40.0914 179.529 40.1902 179.656 40.3166C179.782 40.4431 179.881 40.5943 179.946 40.7608C180.011 40.9273 180.041 41.1055 180.033 41.2842V49.807C180.038 49.9828 180.008 50.1578 179.945 50.3219C179.881 50.4859 179.786 50.6357 179.664 50.7624C179.538 50.8933 179.386 50.9964 179.218 51.0649C179.05 51.1333 178.869 51.1656 178.688 51.1597ZM178.688 40.6725C178.607 40.6684 178.525 40.6809 178.449 40.7092C178.372 40.7374 178.302 40.7809 178.243 40.837C178.185 40.8953 178.141 40.9652 178.113 41.042C178.084 41.1188 178.073 41.2007 178.078 41.2823V49.807C178.081 49.9278 178.119 50.0453 178.187 50.1452C178.255 50.2452 178.351 50.3233 178.462 50.3703C178.573 50.4174 178.696 50.4312 178.815 50.4103C178.934 50.3894 179.045 50.3345 179.133 50.2523C179.19 50.1932 179.233 50.1232 179.262 50.0466C179.29 49.97 179.302 49.8885 179.298 49.807V41.2823C179.307 41.2001 179.297 41.117 179.269 41.039C179.242 40.961 179.197 40.8902 179.139 40.8318C179.08 40.7733 179.009 40.7287 178.931 40.7011C178.853 40.6735 178.77 40.6638 178.688 40.6725ZM178.688 38.965C178.308 38.9672 177.938 38.8373 177.643 38.5974C177.347 38.3575 177.144 38.0225 177.068 37.6496C176.993 37.2767 177.049 36.889 177.227 36.5528C177.405 36.2165 177.694 35.9526 178.046 35.8061C178.397 35.6595 178.788 35.6394 179.152 35.7492C179.517 35.859 179.832 36.0918 180.043 36.408C180.255 36.7242 180.351 37.1041 180.313 37.4828C180.276 37.8615 180.109 38.2156 179.839 38.4845C179.69 38.6388 179.511 38.761 179.313 38.8436C179.115 38.9263 178.903 38.9675 178.688 38.965ZM178.688 36.4351C178.57 36.4325 178.453 36.4548 178.344 36.5006C178.235 36.5465 178.137 36.6148 178.056 36.7012C177.972 36.7833 177.905 36.8815 177.859 36.9899C177.814 37.0982 177.79 37.2147 177.79 37.3323C177.79 37.4499 177.814 37.5664 177.859 37.6747C177.905 37.7831 177.972 37.8813 178.056 37.9634C178.137 38.05 178.235 38.1186 178.343 38.1648C178.452 38.211 178.57 38.2336 178.688 38.2313C178.926 38.2313 179.155 38.1367 179.323 37.9683C179.492 37.7999 179.586 37.5714 179.586 37.3332C179.586 37.095 179.492 36.8666 179.323 36.6982C179.155 36.5297 178.926 36.4351 178.688 36.4351Z" fill="#78D331"/>
<path d="M188.065 50.8696C187.107 50.8887 186.16 50.654 185.322 50.1896C184.54 49.7448 183.893 49.095 183.452 48.3102C183.006 47.4584 182.772 46.5111 182.772 45.5493C182.772 44.5876 183.006 43.6402 183.452 42.7885C183.892 42.0028 184.539 41.3528 185.322 40.9091C186.163 40.4613 187.102 40.2271 188.054 40.2271C189.007 40.2271 189.946 40.4613 190.787 40.9091C191.57 41.3518 192.216 42.0005 192.657 42.7848C193.102 43.6366 193.335 44.5833 193.337 45.5445C193.339 46.5057 193.108 47.4531 192.666 48.3065C192.231 49.092 191.588 49.7423 190.807 50.1859C189.969 50.6516 189.023 50.8875 188.065 50.8696ZM188.065 49.1436C188.683 49.1556 189.294 48.9964 189.828 48.6835C190.336 48.38 190.751 47.942 191.027 47.4176C191.323 46.8436 191.472 46.2045 191.458 45.5586C191.471 44.9092 191.323 44.2667 191.027 43.6884C190.753 43.1603 190.338 42.7188 189.828 42.4133C189.289 42.1116 188.681 41.9532 188.064 41.9532C187.446 41.9532 186.839 42.1116 186.3 42.4133C185.788 42.7205 185.371 43.1613 185.091 43.6884C184.791 44.2645 184.639 44.9069 184.651 45.5567C184.638 46.2037 184.789 46.8435 185.091 47.4158C185.373 47.939 185.79 48.3765 186.3 48.6816C186.834 48.9952 187.445 49.155 188.065 49.1436Z" fill="#78D331"/>
<path d="M188.065 51.2374C187.041 51.2532 186.032 50.9981 185.139 50.4982C184.3 50.0207 183.606 49.3237 183.132 48.4821C182.654 47.5748 182.404 46.5647 182.404 45.5392C182.404 44.5136 182.654 43.5035 183.132 42.5963C183.606 41.7546 184.3 41.0577 185.139 40.5802C186.036 40.1009 187.038 39.8501 188.054 39.8501C189.071 39.8501 190.073 40.1009 190.97 40.5802C191.809 41.0593 192.503 41.7574 192.977 42.6C193.453 43.5071 193.703 44.516 193.705 45.5406C193.706 46.5652 193.461 47.575 192.988 48.4839C192.519 49.3277 191.828 50.026 190.988 50.5019C190.095 51.0003 189.087 51.254 188.065 51.2374ZM188.065 40.595C187.171 40.5766 186.288 40.7946 185.505 41.227C184.777 41.6389 184.176 42.2414 183.764 42.9696C183.349 43.7661 183.132 44.6511 183.132 45.5493C183.132 46.4476 183.349 47.3326 183.764 48.1291C184.173 48.8562 184.772 49.4581 185.498 49.8699C186.287 50.2851 187.165 50.502 188.057 50.502C188.949 50.502 189.827 50.2851 190.617 49.8699C191.339 49.4589 191.935 48.8574 192.339 48.1309C192.751 47.3332 192.966 46.4483 192.966 45.5503C192.966 44.6523 192.751 43.7674 192.339 42.9696C191.93 42.2423 191.331 41.64 190.606 41.227C189.829 40.7962 188.953 40.5782 188.065 40.595ZM188.065 49.5114C187.379 49.5233 186.703 49.3462 186.111 48.9995C185.546 48.6602 185.083 48.1751 184.77 47.595C184.438 46.9695 184.271 46.2701 184.284 45.5623C184.271 44.8512 184.438 44.1483 184.768 43.5184C185.079 42.9332 185.543 42.4438 186.111 42.1029C186.707 41.766 187.38 41.589 188.065 41.589C188.749 41.589 189.422 41.766 190.018 42.1029C190.585 42.4433 191.047 42.9339 191.352 43.5203C191.674 44.149 191.836 44.847 191.825 45.553C191.838 46.2596 191.675 46.9582 191.35 47.5858C191.044 48.1683 190.583 48.6554 190.018 48.9939C189.427 49.3422 188.751 49.5212 188.065 49.5114ZM188.065 42.3209C187.512 42.3098 186.966 42.4511 186.488 42.7294C186.034 43.0033 185.663 43.3955 185.415 43.864C185.143 44.387 185.007 44.9696 185.019 45.5586C185.007 46.1442 185.143 46.7234 185.415 47.2421C185.665 47.7074 186.036 48.0967 186.488 48.3693C186.969 48.6343 187.51 48.7733 188.059 48.7733C188.608 48.7733 189.149 48.6343 189.63 48.3693C190.08 48.0992 190.448 47.7106 190.692 47.2458C190.961 46.7246 191.094 46.1446 191.081 45.5586C191.093 44.9692 190.959 44.3859 190.692 43.8603C190.45 43.3923 190.082 43.0008 189.63 42.7294C189.155 42.4528 188.614 42.3115 188.065 42.3209Z" fill="#78D331"/>
</svg>
