<svg width="64" height="37" viewBox="0 0 64 37" fill="none" xmlns="http://www.w3.org/2000/svg">
<path d="M4.51165 36.2259C3.47953 37.258 1.80617 37.258 0.774075 36.2259C-0.258025 35.1938 -0.258025 33.5205 0.774075 32.4884L20.5955 12.667C21.6276 11.6349 23.301 11.6349 24.3331 12.667L35.6786 24.0124L54.4053 5.28572H44.9286C43.4689 5.28572 42.2857 4.10251 42.2857 2.64286C42.2857 1.18321 43.4689 9.53674e-07 44.9286 9.53674e-07H60.7839H60.7936C61.1491 0.0010581 61.4879 0.0721486 61.7974 0.200591C62.109 0.329563 62.401 0.520644 62.6545 0.774094C63.1384 1.258 63.3953 1.88251 63.4257 2.516C63.4275 2.55829 63.4286 2.60057 63.4286 2.64286V18.5C63.4286 19.9597 62.2454 21.1429 60.7857 21.1429C59.3261 21.1429 58.1429 19.9597 58.1429 18.5V9.02324L37.5473 29.6188C36.5153 30.6509 34.8418 30.6509 33.8098 29.6188L22.4643 18.2732L4.51165 36.2259Z" fill="#78D331"/>
</svg>
