<svg width="45" height="42" viewBox="0 0 45 42" fill="none" xmlns="http://www.w3.org/2000/svg">
<path d="M43.1215 40.5302C43.4845 40.5302 43.828 40.3682 44.0566 40.0885C44.2852 39.8091 44.3743 39.4425 44.2993 39.0906L43.5413 35.5355C43.973 35.1216 44.2443 34.5438 44.2443 33.9012C44.2443 33.2249 43.9404 32.6249 43.4686 32.2082V19.8625L40.4298 21.7261V32.2082C39.958 32.6249 39.6539 33.2249 39.6539 33.9012C39.6539 34.5438 39.9254 35.1217 40.3571 35.5355L39.599 39.0906C39.524 39.4425 39.6132 39.8092 39.8417 40.0885C40.0703 40.368 40.4137 40.5302 40.7767 40.5302H43.1215ZM44.1515 12.6583L24.3829 0.530839C23.8039 0.177417 23.1513 0 22.4986 0C21.846 0 21.1928 0.177269 20.6174 0.530839L0.848474 12.6583C0.320603 12.982 0 13.5537 0 14.169C0 14.7845 0.320602 15.3564 0.848474 15.6806L20.6173 27.8082C21.1927 28.1619 21.8459 28.339 22.4985 28.339C23.1512 28.339 23.8039 28.1617 24.3828 27.8082L44.1515 15.6806C44.6794 15.3565 45 14.7845 45 14.169C45 13.5537 44.6794 12.9818 44.1515 12.6583ZM22.4985 31.3503C21.2671 31.3503 20.0652 31.0113 19.0176 30.3687L7.48636 23.294V35.476C7.48636 39.0814 14.2107 42 22.4985 42C30.7893 42 37.5131 39.0814 37.5131 35.476V23.294L25.9823 30.3687C24.9347 31.0113 23.7299 31.3503 22.4985 31.3503Z" fill="#78D331"/>
</svg>
