<svg width="53" height="37" viewBox="0 0 53 37" fill="none" xmlns="http://www.w3.org/2000/svg">
<path d="M50.35 0H2.65C1.94718 0 1.27314 0.278444 0.776167 0.774075C0.279196 1.26971 0 1.94193 0 2.64286V34.3571C0 35.0581 0.279196 35.7303 0.776167 36.2259C1.27314 36.7216 1.94718 37 2.65 37H50.35C51.0528 37 51.7269 36.7216 52.2238 36.2259C52.7208 35.7303 53 35.0581 53 34.3571V2.64286C53 1.94193 52.7208 1.26971 52.2238 0.774075C51.7269 0.278444 51.0528 0 50.35 0ZM5.3 31.7143V23.7857C7.40847 23.7857 9.43058 24.621 10.9215 26.1079C12.4124 27.5948 13.25 29.6115 13.25 31.7143H5.3ZM5.3 13.2143V5.28571H13.25C13.25 7.3885 12.4124 9.40517 10.9215 10.8921C9.43058 12.379 7.40847 13.2143 5.3 13.2143ZM26.5 25.1071C25.1897 25.1071 23.9088 24.7196 22.8193 23.9936C21.7299 23.2676 20.8807 22.2357 20.3793 21.0284C19.8779 19.8211 19.7467 18.4927 20.0023 17.211C20.2579 15.9293 20.8889 14.7521 21.8154 13.828C22.7419 12.904 23.9224 12.2747 25.2075 12.0198C26.4927 11.7649 27.8247 11.8957 29.0353 12.3958C30.2458 12.8959 31.2805 13.7427 32.0085 14.8293C32.7365 15.9158 33.125 17.1932 33.125 18.5C33.125 20.2523 32.427 21.9329 31.1846 23.172C29.9422 24.411 28.2571 25.1071 26.5 25.1071ZM47.7 31.7143H39.75C39.75 29.6115 40.5876 27.5948 42.0785 26.1079C43.5694 24.621 45.5915 23.7857 47.7 23.7857V31.7143ZM47.7 13.2143C45.5915 13.2143 43.5694 12.379 42.0785 10.8921C40.5876 9.40517 39.75 7.3885 39.75 5.28571H47.7V13.2143Z" fill="#78D331"/>
</svg>
